<svg xmlns="http://www.w3.org/2000/svg" fill-rule="evenodd" viewBox="0 0 100 100">
    <path d="M83.88 48.61a1.48 1.48 0 0 0-.42-.21 33.4 33.4 0 0 0-10.22-22.5c1.56-6.1 1.69-11.09.31-14.49a7.45 7.45 0 0 0-4.08-4.29c-3.34-1.39-7.79-.46-13.23 2.76a1.5 1.5 0 0 0 1.53 2.58C62.22 9.82 66 8.91 68.32 9.89a4.51 4.51 0 0 1 2.45 2.65c1 2.5.95 6.38-.1 11.12a33.4 33.4 0 0 0-43.95 2.28l-.24-.05C14.88 24.61 6.84 26.5 5 30.94a7.24 7.24 0 0 0 .28 5.76c1.55 3.66 5.56 7.81 11.28 12v1.32a33.28 33.28 0 0 0 4.43 16.61 1.48 1.48 0 0 0-.2.45c-2.45 10.53-1.23 17.55 3.45 19.75a7.28 7.28 0 0 0 3.15.67c3.52 0 7.74-2.14 12.16-5.69a33.43 33.43 0 0 0 36.4-10.57l.94.1q2.29.18 4.32.18c7.61 0 12.37-1.86 13.88-5.45 1.85-4.56-2.09-10.75-11.21-17.46ZM50 19.5a30.36 30.36 0 0 1 19.85 7.37 73.84 73.84 0 0 1-3.09 8.54 1.5 1.5 0 0 0 2.76 1.18q1.66-3.88 2.77-7.38a30.42 30.42 0 0 1 2.26 38.87 108.23 108.23 0 0 1-19-4.13c2.33-3.29 4.55-6.76 6.58-10.29.75-1.3 1.48-2.63 2.19-4a1.5 1.5 0 0 0-2.65-1.41c-.69 1.3-1.41 2.6-2.14 3.87a124.09 124.09 0 0 1-7 10.83q-3.67-1.21-7.51-2.7a126.31 126.31 0 0 1-25.39-13.03A30.54 30.54 0 0 1 50 19.5Zm-42 16a4.4 4.4 0 0 1-.28-3.43c1-2.35 6.44-4.24 16.44-3.42a33.37 33.37 0 0 0-7.31 16.55c-4.48-3.43-7.61-6.78-8.85-9.67Zm35.92 27.59c2.25.88 4.5 1.67 6.73 2.42a90.82 90.82 0 0 1-11.73 12.9 30.54 30.54 0 0 1-19.4-27.65 131.23 131.23 0 0 0 24.4 12.33Zm-18.46 21c-2.88-1.36-3.69-6.55-2.29-14.06A33.7 33.7 0 0 0 36.3 80.56c-4.3 3.28-8.2 4.8-10.84 3.55ZM50 80.5a30.43 30.43 0 0 1-7.81-1 94 94 0 0 0 11.51-13 116.92 116.92 0 0 0 18.56 4.3A30.41 30.41 0 0 1 50 80.5Zm42.26-15.6c-1.13 2.7-6.37 4-14.28 3.49A33.28 33.28 0 0 0 83.43 52c6.65 5.21 10.02 10.07 8.83 12.9Z"/>
    <path d="M24.19 44.27a111.52 111.52 0 0 0 13.18 7.1 1.5 1.5 0 0 0 1.25-2.72 108.57 108.57 0 0 1-12.82-6.9 1.5 1.5 0 0 0-1.61 2.53Zm26.05 8.02a1.5 1.5 0 0 0 2.05-.53c.75-1.26 1.48-2.55 2.19-3.83a124.22 124.22 0 0 0 7.94-17.42 1.5 1.5 0 0 0-2.82-1 121.09 121.09 0 0 1-7.74 17c-.69 1.26-1.41 2.52-2.14 3.75a1.5 1.5 0 0 0 .52 2.03Z"/>
</svg>
