<svg xmlns="http://www.w3.org/2000/svg" fill-rule="evenodd" viewBox="0 0 100 100">
    <path d="M49.001 10.408C27.17 10.408 9.409 28.169 9.409 50S27.17 89.591 49.001 89.591 88.592 71.83 88.592 50c0-21.832-17.76-39.592-39.591-39.592zm0 76.183c-20.177 0-36.592-16.415-36.592-36.591 0-20.177 16.415-36.592 36.592-36.592S85.592 29.823 85.592 50c0 20.176-16.414 36.591-36.591 36.591z"/>
    <path d="M65.209 56.228H32.796a1.5 1.5 0 0 0-1.5 1.5c0 9.763 7.942 17.706 17.705 17.706 9.764 0 17.708-7.943 17.708-17.706a1.5 1.5 0 0 0-1.5-1.5zM49.001 72.434c-7.602 0-13.875-5.799-14.629-13.206h29.261c-.754 7.407-7.028 13.206-14.632 13.206zm-9.406-34.258a6.663 6.663 0 0 0-6.657-6.655 6.662 6.662 0 0 0-6.654 6.655c0 3.671 2.985 6.657 6.654 6.657a6.665 6.665 0 0 0 6.657-6.657zm-10.311 0a3.658 3.658 0 0 1 3.654-3.655 3.66 3.66 0 0 1 3.657 3.655 3.661 3.661 0 0 1-3.657 3.657 3.66 3.66 0 0 1-3.654-3.657zm35.044-6.655a6.663 6.663 0 0 0-6.657 6.655c0 3.671 2.986 6.657 6.657 6.657s6.657-2.986 6.657-6.657a6.663 6.663 0 0 0-6.657-6.655zm0 10.312a3.661 3.661 0 0 1-3.657-3.657c0-2.016 1.641-3.655 3.657-3.655s3.657 1.64 3.657 3.655a3.661 3.661 0 0 1-3.657 3.657z"/>
</svg>
