<svg xmlns="http://www.w3.org/2000/svg" fill-rule="evenodd" viewBox="0 0 100 100">
    <path d="M17.313 56.946a1.452 1.452 0 1 0-2.906 0c0 4.053 3.59 7.411 8.252 7.996v6.205a1.452 1.452 0 1 0 2.906 0V64.94c4.656-.592 8.238-3.946 8.238-7.993 0-4.045-3.583-7.395-8.238-7.986V38.614c3.045.51 5.332 2.585 5.332 5.064a1.452 1.452 0 1 0 2.906 0c0-4.049-3.583-7.403-8.238-7.992v-6.213a1.452 1.452 0 1 0-2.906 0v6.213c-4.663.588-8.252 3.942-8.252 7.992 0 4.046 3.589 7.399 8.252 7.985v10.352c-3.052-.508-5.346-2.586-5.346-5.069zm13.584 0c0 2.477-2.287 4.552-5.332 5.065V51.888c3.045.512 5.332 2.584 5.332 5.058zM17.313 43.678c0-2.479 2.293-4.555 5.346-5.064v10.122c-3.053-.509-5.346-2.582-5.346-5.058z"/>
    <path d="M96.51 20.412H3.492c-.803 0-1.453.65-1.453 1.453v59.19c0 .803.65 1.453 1.453 1.453H96.51c.803 0 1.453-.65 1.453-1.453v-59.19c0-.803-.651-1.453-1.453-1.453zm-1.453 59.19H4.945V23.318h90.111v56.284z"/>
    <path d="M45.77 40.236h42.282a1.452 1.452 0 1 0 0-2.906H45.77a1.452 1.452 0 1 0 0 2.906zm0 11.526h42.282a1.452 1.452 0 1 0 0-2.906H45.77a1.452 1.452 0 1 0 0 2.906zm0 13.821h42.282a1.452 1.452 0 1 0 0-2.906H45.77a1.452 1.452 0 1 0 0 2.906z"/>
</svg>
