<svg xmlns="http://www.w3.org/2000/svg" fill-rule="evenodd" viewBox="0 0 100 100">
    <path d="M71.773 19.463v-6.845h-3v6.845H30.308v-6.845h-3v6.845H11.672v65.44h77.449v-65.44H71.773zm14.348 62.44H14.672v-59.44h12.636v4.541h3v-4.541h38.465v4.541h3v-4.541h14.348v59.44z"/>
    <path d="m76.355 57.291-5.061 5.062-5.06-5.062-2.122 2.121 5.061 5.063-5.061 5.063 2.122 2.121 5.06-5.062 5.061 5.062 2.122-2.121-5.061-5.063 5.061-5.063zm-52.76-8.454h12.249V36.59H23.595v12.247zm3-9.248h6.249v6.247h-6.249v-6.247zm18.078 9.248h12.246V36.59H44.673v12.247zm3-9.248h6.246v6.247h-6.246v-6.247zM23.595 70.107h12.249V57.86H23.595v12.247zm3-9.248h6.249v6.247h-6.249v-6.247zm18.078 9.248h12.246V57.86H44.673v12.247zm3-9.248h6.246v6.247h-6.246v-6.247zm29.357-24.27H64.781v12.247H77.03V36.589zm-3 9.248h-6.249V39.59h6.249v6.247z"/>
</svg>
